PathFileType	4	(X/Y/Z)	E:\Qualisys_Data\Carbon_Farble_Plate\Data\Amateur_Runner\S1\T2\S1T2V23_c3d.trc
DataRate	CameraRate	NumFrames	NumMarkers	Units	OrigDataRate	OrigDataStartFrame	OrigNumFrames
200.000000	200.000000	5	39	mm	200.000000	0	300
Frame#	Time	LSHO			RSHO			LICST			RICST			LASIS			LHEEL			RASIS			LTROC			RTROC			SACR			LTH1			LSK4			LTH2			LTH3			RHM5			LSK2			LTH4			RTH1			LTOE			RTH2			RTH3			RTH4			LLEP			RLEP			LSK1			LSK3			RSK1			LHM5			RSK2			LFT1			RSK3			RSK4			LLME			RLME			RTOE			RHEEL			RFT1			RFT2			LFT2			
		X1	Y1	Z1	X2	Y2	Z2	X3	Y3	Z3	X4	Y4	Z4	X5	Y5	Z5	X6	Y6	Z6	X7	Y7	Z7	X8	Y8	Z8	X9	Y9	Z9	X10	Y10	Z10	X11	Y11	Z11	X12	Y12	Z12	X13	Y13	Z13	X14	Y14	Z14	X15	Y15	Z15	X16	Y16	Z16	X17	Y17	Z17	X18	Y18	Z18	X19	Y19	Z19	X20	Y20	Z20	X21	Y21	Z21	X22	Y22	Z22	X23	Y23	Z23	X24	Y24	Z24	X25	Y25	Z25	X26	Y26	Z26	X27	Y27	Z27	X28	Y28	Z28	X29	Y29	Z29	X30	Y30	Z30	X31	Y31	Z31	X32	Y32	Z32	X33	Y33	Z33	X34	Y34	Z34	X35	Y35	Z35	X36	Y36	Z36	X37	Y37	Z37	X38	Y38	Z38	X39	Y39	Z39	

1	0	-3067.249755859375	1539.44873046875	-578.574951171875	-3143.066162109375	1522.626953125	-264.0260009765625	-3110.433837890625	1054.85693359375	-570.1231689453125	-3127.206298828125	1084.755859375	-275.5459594726562	-3071.963623046875	1010.705139160156	-543.019775390625	-3694.636474609375	338.4156799316406	-478.0709533691406	-3089.596435546875	1035.876953125	-281.8866271972656	-3202.864501953125	953.5579223632812	-588.2677612304688	-3187.83642578125	947.9246826171875	-247.1869201660156	-3235.914306640625	1093.114379882812	-427.077392578125	-3145.901123046875	770.04833984375	-559.13232421875	-3585.24267578125	415.0049743652344	-509.6350708007812	-3218.38916015625	795.8030395507812	-589.66748046875	-3188.3212890625	675.72265625	-542.3081665039062	-2787.599609375	160.6340789794922	-263.6021728515625	-3507.155029296875	472.359130859375	-546.840087890625	-3264.153564453125	707.8418579101562	-564.6976928710938	-3012.00341796875	886.7636108398438	-267.2742614746094	-3608.02490234375	97.97420501708984	-459.8294982910156	-3075.28857421875	842.0198974609375	-244.501220703125	-2955.645751953125	801.1705932617188	-269.0747680664062	-3021.938720703125	757.5910034179688	-258.4772033691406	-3306.98974609375	558.4634399414062	-529.8507690429688	-2924.560791015625	618.5835571289062	-283.7124633789062	-3457.8359375	405.5694885253906	-534.8470458984375	-3542.838623046875	350.1461791992188	-531.2884521484375	-2916.298583984375	422.792236328125	-265.8494873046875	-3664.598388671875	141.01416015625	-529.0103759765625	-2995.510498046875	421.061767578125	-289.0630493164062	-3715.9287109375	320.6005859375	-450.2242431640625	-2907.977783203125	323.5827941894531	-283.1391906738281	-2982.518798828125	322.5412292480469	-313.6611938476562	-3653.056396484375	299.7709045410156	-526.874755859375	-2925.78466796875	187.0646362304688	-291.8126525878906	-2727.96630859375	197.3192291259766	-333.4533386230469	-2974.457763671875	131.1760559082031	-342.0347900390625	-2949.57763671875	105.6753463745117	-370.0285339355469	-2962.944580078125	104.3909683227539	-315.6993408203125	-3722.3251953125	317.4231262207031	-503.3101806640625
2	0.005	-3045.69482421875	1540.372192382812	-576.7775268554688	-3123.079345703125	1522.821166992188	-262.7428588867188	-3089.073486328125	1055.809326171875	-569.9339599609375	-3106.68701171875	1084.183471679688	-275.4019470214844	-3050.617919921875	1011.890075683594	-543.39697265625	-3679.80908203125	345.5989379882812	-478.1939697265625	-3069.638427734375	1035.893798828125	-281.2089233398438	-3181.1279296875	954.371826171875	-587.721435546875	-3166.70361328125	948.0914306640624	-247.0288543701172	-3214.5595703125	1093.363891601562	-426.3208618164062	-3123.921875	770.4332885742188	-558.3007202148438	-3565.725341796875	421.5075073242188	-508.8873291015625	-3196.253173828125	796.4853515625	-589.345947265625	-3165.66943359375	676.2220458984375	-542.0521240234375	-2753.07470703125	161.1043243408203	-263.1062622070312	-3487.399169921875	477.1717529296875	-546.5944213867188	-3241.770751953125	708.0912475585938	-564.418212890625	-2991.356201171875	883.0175170898438	-267.4312438964844	-3591.135986328125	106.8554458618164	-457.653564453125	-3055.7734375	839.5369262695312	-243.6144714355469	-2937.23828125	797.2423095703125	-269.0624084472656	-3004.6015625	754.3385620117188	-257.6969604492188	-3284.47412109375	558.3538818359375	-530.0908813476562	-2908.0830078125	615.16552734375	-284.68115234375	-3439.139892578125	409.2011413574219	-534.1435546875	-3525.923095703125	355.7153625488281	-530.3060913085938	-2891.776123046875	420.5828857421875	-265.778564453125	-3648.250732421875	147.8155212402344	-527.9307861328125	-2971.866455078125	414.3121337890625	-287.3261108398438	-3701.93603515625	328.2963256835938	-450.0841064453125	-2880.34326171875	321.6864013671875	-281.6734619140625	-2955.86181640625	317.5595703125	-312.760009765625	-3637.040771484375	306.8193359375	-526.5732421875	-2892.5048828125	184.1006011962891	-290.5872802734375	-2695.763671875	201.2613220214844	-333.5802001953125	-2951.195556640625	126.4959030151367	-339.7760314941406	-2914.072265625	101.3575439453125	-368.3219604492188	-2926.824951171875	99.4339599609375	-314.1162109375	-3707.4560546875	324.2345886230469	-503.632080078125
3	0.01	-3024.932373046875	1541.030517578125	-575.2929077148438	-3102.958740234375	1522.352905273438	-261.9175109863281	-3067.700439453125	1056.594482421875	-569.521728515625	-3084.146484375	1083.788452148438	-274.7597961425781	-3029.306640625	1012.420471191406	-542.7302856445312	-3664.19140625	352.8976745605469	-477.98388671875	-3047.6591796875	1035.290771484375	-280.6075439453125	-3159.931396484375	954.7814331054688	-588.0379638671875	-3146.3310546875	947.1926879882812	-247.5028686523438	-3193.28955078125	1093.139892578125	-425.8514099121094	-3100.9501953125	770.638427734375	-557.0609130859375	-3547.280029296875	428.1934204101562	-509.1533813476562	-3174.170166015625	796.5223999023438	-588.8418579101562	-3143.14794921875	676.768310546875	-540.8177490234375	-2719.88232421875	162.292724609375	-263.0934448242188	-3467.18896484375	481.4793090820312	-546.771484375	-3218.692138671875	707.5269165039062	-563.806884765625	-2972.7900390625	879.8719482421875	-267.7088623046875	-3576.37939453125	113.9895248413086	-454.9117431640625	-3036.935546875	836.4955444335938	-241.7193756103516	-2918.27880859375	792.6408081054688	-268.2459411621094	-2987.3720703125	750.7413940429688	-257.0133361816406	-3261.66943359375	557.8455810546875	-529.1063842773438	-2890.421142578125	611.521728515625	-285.6130981445312	-3420.00537109375	412.0628662109375	-533.4370727539062	-3507.754638671875	361.2910461425781	-529.2439575195312	-2868.7265625	417.959716796875	-265.5808715820312	-3632.111328125	154.9180145263672	-526.01416015625	-2948.8359375	409.2645263671875	-286.1242065429688	-3685.655517578125	335.4826354980469	-449.5020446777344	-2854.29345703125	319.6919860839844	-281.3054809570312	-2929.288330078125	312.8216552734375	-311.260498046875	-3620.944580078125	313.6744995117188	-525.7384033203125	-2861.862060546875	180.9886322021484	-288.8417053222656	-2665.046875	205.5648040771484	-334.4414978027344	-2906.03759765625	121.7901458740234	-338.9979858398438	-2880.150146484375	99.49008178710938	-367.8129272460938	-2892.4140625	95.36036682128906	-313.1759948730469	-3691.1376953125	331.4898071289062	-503.5183410644531
4	0.015	-3003.272216796875	1541.637329101562	-574.077880859375	-3082.144287109375	1521.514038085938	-260.4907836914062	-3046.40966796875	1057.1123046875	-569.4848022460938	-3064.499755859375	1083.340087890625	-274.6262817382812	-3008.0673828125	1013.634887695312	-542.3243408203125	-3647.50634765625	361.2285461425781	-477.6690368652344	-3026.908203125	1035.154418945312	-280.6554565429688	-3138.39501953125	954.8141479492188	-587.8084716796875	-3125.373291015625	946.7116088867188	-247.8792419433594	-3172.534912109375	1092.80029296875	-425.3680419921875	-3078.40673828125	770.7623291015625	-556.3114013671875	-3526.998046875	433.78662109375	-508.3704528808594	-3150.73486328125	795.6939697265625	-587.4041748046875	-3119.543701171875	676.4878540039062	-539.2022094726562	-2688.343017578125	163.5996704101562	-263.1590576171875	-3445.63232421875	485.2672424316406	-546.5328979492188	-3195.19189453125	706.2266235351562	-563.3681640625	-2953.012939453125	875.3338012695312	-268.532958984375	-3560.526611328125	120.9836654663086	-453.3889465332031	-3018.621826171875	833.9984130859375	-240.9219970703125	-2900.433349609375	787.6593017578125	-268.7585754394531	-2970.536376953125	746.434814453125	-255.9475402832031	-3238.309814453125	556.6815795898438	-528.8798217773438	-2873.3037109375	607.9169311523438	-286.8602600097656	-3400.167236328125	414.9245300292969	-533.16162109375	-3489.46240234375	366.17236328125	-528.7189331054688	-2846.87060546875	416.531982421875	-265.8100280761719	-3615.730224609375	161.9564666748047	-524.8145751953125	-2926.3193359375	405.1397399902344	-285.9461059570312	-3668.614013671875	344.1430053710938	-449.3121948242188	-2828.693603515625	318.2510070800781	-280.9563903808594	-2903.078369140625	308.7472229003906	-309.8813781738281	-3602.10693359375	321.1126403808594	-524.013671875	-2830.83251953125	178.9568939208984	-288.1824340820312	-2635.115966796875	208.7781219482422	-334.4019165039062	-2874.75146484375	118.4120559692383	-337.6773681640625	-2848.07080078125	97.33457183837892	-367.1391296386719	-2860.26220703125	92.62420654296876	-312.2486877441406	-3672.595458984375	339.29443359375	-502.7696533203125
5	0.02	-2982.09423828125	1541.923095703125	-572.2760009765625	-3062.42138671875	1520.923095703125	-259.3904724121094	-3025.68798828125	1057.071899414062	-569.2647705078125	-3043.465087890625	1082.511962890625	-274.5608825683594	-2987.091796875	1013.493957519531	-542.3011474609375	-3628.5146484375	368.677978515625	-476.61376953125	-3005.378662109375	1034.550048828125	-280.4801025390625	-3116.216796875	954.4866943359376	-587.1819458007812	-3104.093994140625	945.1054077148438	-247.5518035888672	-3151.799560546875	1092.104614257812	-425.3080139160156	-3055.688232421875	770.3920288085938	-554.3945922851562	-3508.856201171875	440.1563415527344	-509.9408874511719	-3127.888427734375	794.614013671875	-586.94921875	-3095.60693359375	675.3341674804688	-538.2595825195312	-2658.418701171875	164.5473937988281	-263.4191589355469	-3423.358642578125	488.7383117675781	-545.8556518554688	-3171.452880859375	705.3740234375	-562.8750610351562	-2934.462646484375	869.9879150390625	-267.9104614257812	-3546.22509765625	127.4630355834961	-451.5051574707031	-2999.02294921875	831.1263427734375	-239.90771484375	-2882.2802734375	781.3607788085938	-268.6000671386719	-2953.68701171875	742.4131469726562	-255.0809783935547	-3214.834716796875	555.3963623046875	-528.812744140625	-2856.9453125	604.3668212890625	-287.8050231933594	-3379.85791015625	416.7531127929688	-532.2890625	-3470.769775390625	370.6093444824219	-528.749755859375	-2824.181884765625	414.5848388671875	-265.2000732421875	-3600.97998046875	169.4494018554688	-523.1035766601562	-2903.59375	399.8000183105469	-284.7454528808594	-3650.5703125	352.4341125488281	-448.9212341308594	-2803.15869140625	317.4931945800781	-280.1421508789062	-2878.20947265625	305.0617980957031	-308.2156677246094	-3585.27294921875	328.167236328125	-523.5537719726562	-2801.7890625	177.4523468017578	-286.6368408203125	-2607.489013671875	212.2745971679688	-334.9972534179688	-2844.10302734375	115.1421432495117	-335.5345153808594	-2817.671630859375	95.24121856689452	-366.0535888671875	-2829.099365234375	89.4354248046875	-310.869873046875	-3656.0146484375	348.7881774902344	-502.4638977050781
